<svg xmlns="http://www.w3.org/2000/svg" viewBox="3217 720 26.001 26.001"><defs><style>.a{fill:#2c3e50;}</style></defs><path class="a" d="M-2217-1098a13.015,13.015,0,0,1-13-13,13.015,13.015,0,0,1,13-13,13.015,13.015,0,0,1,13,13A13.015,13.015,0,0,1-2217-1098Zm-.151-17.411a2.927,2.927,0,0,0-.553.059,2.792,2.792,0,0,0-.591.183,2,2,0,0,0-.51.317.863.863,0,0,0-.3.483q-.086.408-.452,1.762-.451,1.621-.6,2.094a19.558,19.558,0,0,0-.387,1.955,9.827,9.827,0,0,0-.15,1.579,3.642,3.642,0,0,0,.1.886,1.677,1.677,0,0,0,.338.681,1.58,1.58,0,0,0,.618.436,2.507,2.507,0,0,0,.94.156,4.27,4.27,0,0,0,1.316-.226,9.558,9.558,0,0,0,1.359-.563,10.365,10.365,0,0,0,1.241-.742,9.688,9.688,0,0,0,.961-.757v-2.181q-.355.29-.816.7t-.946.79a7.705,7.705,0,0,1-.956.65,1.777,1.777,0,0,1-.859.268.426.426,0,0,1-.44-.284,2.2,2.2,0,0,1-.107-.768,6.527,6.527,0,0,1,.107-1.112q.107-.617.268-1.267t.408-1.44q.247-.788.408-1.354t.269-1.009a3.171,3.171,0,0,0,.107-.682.616.616,0,0,0-.161-.446A.855.855,0,0,0-2217.151-1115.411Zm.634-4.748a2.373,2.373,0,0,0-1,.188,1.94,1.94,0,0,0-.645.462,1.748,1.748,0,0,0-.349.585,1.738,1.738,0,0,0-.107.559,1.6,1.6,0,0,0,.451,1.187,1.928,1.928,0,0,0,1.4.446,2.417,2.417,0,0,0,.939-.167,1.941,1.941,0,0,0,.65-.435,1.668,1.668,0,0,0,.376-.613,2.186,2.186,0,0,0,.118-.708,1.532,1.532,0,0,0-.145-.687,1.253,1.253,0,0,0-.392-.467,1.733,1.733,0,0,0-.58-.264A2.874,2.874,0,0,0-2216.517-1120.158Z" transform="translate(5447 1844)"/></svg>