<svg xmlns="http://www.w3.org/2000/svg" width="500" height="60" viewBox="0 0 500 60"><path d="M500 0l-50.763 1.583c-5.569-.004-10.549 1.476-14.632 4.207-3.841-3.644-9.808-4.207-15.322-4.207l-169.051.042-33.727.003c-4.368 0-8.249.657-11.688 1.948l.472-1.938-166.619.027c-10.591-.006-19.051 5.24-23.211 14.406L11.18 25.54c-.605 1.301-2.062 4.429-2.069 7.969-1.076-.496-2.516-1.154-2.516-1.154L0 58.797l181.219-.038 2.64-3.794c4.497 3.776 10.899 3.794 13.271 3.794l261.56-.056c12.38-.009 20.292-4.672 24.891-14.688.011-.012 4.74-10.343 4.74-10.343 1.157-2.522 1.592-6.293 1.589-8.192 0-.259-.093-.443-.11-.691.699.261 1.841.691 1.841.691L500 0z"/><path d="M69.95 28.076c2.792-6.149-1.04-8.533-10.132-8.536l-15.207.021c-3.306-.016-4.001-.276-3.268-1.867l1.095-2.37c.67-1.535 1.637-1.832 4.953-1.837l19.919-.007c4.109-.006 5.845.538 8.069 1.397l1.977-8.403-39.731.004c-7.576-.004-13.461 3.429-16.472 10.058l-4.269 9.457c-3.293 7.054-.928 9.153 7.584 9.153l17.476.005c3.339-.002 3.89.329 3.181 1.859l-1.332 2.907c-.699 1.577-1.557 1.832-4.879 1.839l-20.694.006c-4.263-.006-5.946-.794-7.677-1.582l-2.13 8.615 38.654-.01c10.286-.006 15.096-3.73 18.134-10.358l4.749-10.351zM173.646 30.354c4.949 0 7.126.61 9.175 1.135l4.242-9.233c-2.542.497-5.25 1.103-10.178 1.099h-15.296l4.57-9.893 17.417-.011c5.033.016 7.21.581 9.259 1.125l1.983-8.13-48.639-.002c.326 1.671.251 3.237-1.571 7.257l-12.693 27.771c-1.158 2.513-2.149 4.055-3.164 5.28-1.301-2.248-2.252-4.806-2.88-6.65l-6.835-21.164 14.182-8.312c4.046-2.4 6.266-3.116 9.289-4.183l-19.589.009c-.158.54-.277 1.058-.519 1.582-.643 1.418-1.689 2.445-5.083 4.59L96.768 25.442l5.354-11.732c1.834-4.029 3.274-5.59 5.086-7.264L82.25 6.46c.333 1.667.301 3.226-1.551 7.247l-12.696 27.79c-1.832 4.017-3.242 5.579-5.069 7.292l24.91.002c-.264-1.709-.261-3.286 1.557-7.297l2.929-6.349 7.053-4.312 4.351 17.941 72.572-.013 5.669-8.152c-2.441.517-5.169 1.121-10.139 1.121h-18.644l5.231-11.37 15.223-.006zM237.813 38.483s-6.776 1.583-15.29 1.579c0 0-8.308.028-10.029 0-2.172-.012-2.839-.61-2.018-2.688.821-2.08 9.099-19.875 9.099-19.875.291-.642 1.324-2.395 3.998-2.395l15.739.003c3.912-.012 7.422 1.312 7.422 1.312l2.51-9.734-.13.008.074-.259-33.727.004c-9.172 0-15.757 3.296-19.941 12.442l-7.963 17.446c-4.181 9.083-.574 12.436 8.53 12.436l34.625-.016 7.101-10.263zM299.073 41.445l12.708-27.784c1.818-4.016 3.261-5.574 5.051-7.248l-24.93.009c.306 1.669.29 3.229-1.565 7.243l-4.396 9.679h-16.003l4.446-9.67c1.854-4.032 3.256-5.59 5.094-7.252l-24.95.016c.311 1.659.274 3.208-1.604 7.239l-12.667 27.787c-1.857 3.997-3.279 5.592-5.123 7.281l24.954-.009c-.293-1.689-.276-3.271 1.604-7.279l5.087-11.111 15.954-.011-5.075 11.122c-1.843 4.004-3.269 5.584-5.09 7.285l24.909-.009c-.297-1.692-.254-3.272 1.596-7.288M344.045 41.697l-18.583-.002 5.177-11.361 15.273-.004c4.898-.013 7.121.596 9.147 1.124l4.234-9.231c-2.548.506-5.25 1.107-10.141 1.105h-15.316l4.551-9.903 17.455-.004c5.041.006 7.199.578 9.254 1.119l1.95-8.133-48.608.013c.279 1.667.25 3.226-1.604 7.257l-12.671 27.769c-1.862 4.013-3.306 5.596-5.089 7.284l49.479-.009 5.662-8.15c-2.393.534-5.173 1.132-10.17 1.126M413.246 30.309c4.696-.236 8.879-.577 11.737-6.784l3.542-7.794c3.244-7.091-.471-9.33-10.293-9.333l-46.171.007c.82 1.675.793 3.224-1.063 7.261l-12.687 27.78c-1.834 4.007-3.241 5.584-5.104 7.279l24.938-.003c-.292-1.692-.27-3.278 1.57-7.285l5.06-11.11 6.604-.018 1.76 18.409 23.965.004c-1.152-1.611-1.175-3.805-1.666-6.502l-2.192-11.911zm-6.177-14.537l-2.327 5.17c-.936 2.052-1.877 2.373-4.644 2.383h-12.101l4.59-9.9 12.054-.012c2.741-.009 3.402.304 2.428 2.359M453.006 15.247c.722-1.537 1.655-1.85 5.01-1.855l19.899.006c4.141.005 5.803.543 8.056 1.395l2.764-8.421-40.545.027c-7.555-.004-13.405 3.425-16.453 10.055l-4.261 9.459c-3.28 7.06-.908 9.156 7.594 9.156l17.473-.004c3.314-.003 3.913.325 3.18 1.875l-1.329 2.897c-.694 1.574-1.529 1.839-4.923 1.844H428.79c-4.18.003-5.944-.797-7.691-1.579l-2.069 8.612 38.611-.006c10.295-.012 15.123-3.745 18.173-10.38l4.728-10.336c2.823-6.148-1-8.529-10.142-8.526h-15.194c-3.352.007-4.03-.253-3.279-1.855l1.079-2.364z" fill="#fff"/><path d="M487.68 42.379c1.737 0 3.123 1.412 3.123 3.151 0 1.765-1.386 3.166-3.137 3.166a3.148 3.148 0 0 1-3.149-3.166 3.152 3.152 0 0 1 3.149-3.151h.014zm-.028.63c-1.316 0-2.382 1.135-2.382 2.534 0 1.415 1.065 2.521 2.396 2.521 1.331.016 2.409-1.105 2.409-2.521 0-1.399-1.078-2.534-2.409-2.534h-.014zm-.532 4.355h-.74v-3.501c.277-.041.585-.098 1.118-.098.603 0 .967.098 1.204.279.197.154.308.393.308.757 0 .42-.293.713-.673.811v.03c.311.055.506.335.563.854.069.546.139.755.195.868h-.771c-.083-.127-.14-.435-.211-.911-.055-.377-.279-.531-.657-.531h-.336v1.442zm0-2.016h.35c.434 0 .771-.14.771-.505 0-.294-.211-.517-.712-.517-.185 0-.312 0-.409.013v1.009z"/></svg>